<svg width="693" height="287" viewBox="0 0 693 287" fill="none" xmlns="http://www.w3.org/2000/svg">
<path d="M688.331 57.9578C691.785 57.9578 692.316 50.7754 692.316 48.6473C692.316 36.6766 692.316 24.7059 692.316 12.4692C692.316 10.075 691.785 3.15861 688.331 3.15861C654.852 3.15861 621.372 3.15861 587.893 3.15861C582.313 3.15861 583.908 16.1934 584.97 19.1196C595.599 45.4551 605.961 72.0567 616.59 98.3922C602.773 98.3922 586.033 98.3922 572.216 98.3922C571.951 69.9286 569.294 38.8047 550.96 18.0555C528.64 -6.94999 482.141 -5.61991 461.948 21.2477C446.271 41.9969 443.082 71.2586 442.817 98.3922C432.188 98.3922 429.265 98.3922 418.637 98.3922C418.371 69.9286 415.714 38.8047 397.38 18.0555C375.061 -6.94999 328.562 -5.61991 308.368 21.2477C292.691 41.9969 289.503 71.2586 289.237 98.3922C274.623 98.3922 255.227 98.3922 240.613 98.3922C232.907 74.7168 225.202 51.0414 217.496 27.366C215.105 19.9176 212.713 12.4692 210.322 5.02072C208.462 -0.565613 205.008 -0.565613 203.148 5.02072C193.582 36.1446 183.751 67.0024 174.186 98.1262C164.354 98.1262 154.523 98.1262 144.958 98.1262C139.112 98.1262 139.112 116.747 144.958 116.747C152.929 116.747 160.635 116.747 168.606 116.747C164.089 130.846 159.837 145.211 155.32 159.31C153.46 165.162 151.866 170.749 150.006 176.601C147.083 176.601 144.161 176.601 141.238 176.601C137.784 176.601 134.329 176.601 131.141 176.601C129.015 176.601 126.624 176.601 124.498 176.601C124.498 125.792 124.498 74.9828 124.498 24.1738C133.001 24.1738 141.238 24.1738 149.741 24.1738C155.586 24.1738 155.586 5.55275 149.741 5.55275C139.909 5.55275 130.078 5.55275 120.513 5.55275C113.604 5.55275 106.43 5.55275 99.5217 5.55275C85.9706 5.55275 72.1538 5.55275 58.6027 5.55275C51.6943 5.55275 44.5202 5.55275 37.6118 5.55275C27.2491 5.55275 16.6208 5.55275 6.25821 5.55275C0.41263 5.55275 0.41263 24.1738 6.25821 24.1738C15.2923 24.1738 24.3264 24.1738 33.6261 24.1738C33.6261 74.9828 33.6261 125.792 33.6261 176.601C24.0606 176.601 14.4952 176.601 5.19537 176.601C-0.650206 176.601 -0.650206 195.222 5.19537 195.222C22.7321 195.222 40.2688 195.222 57.5399 195.222C63.3854 195.222 63.3854 176.601 57.5399 176.601C52.2257 176.601 47.1772 176.601 41.8631 176.601C41.8631 125.792 41.8631 74.9828 41.8631 24.1738C47.4429 24.1738 53.2885 24.1738 58.8684 24.1738C72.4195 24.1738 86.2363 24.1738 99.7874 24.1738C105.367 24.1738 111.213 24.1738 116.793 24.1738C116.793 74.9828 116.793 125.792 116.793 176.601C111.213 176.601 105.367 176.601 99.7874 176.601C93.9419 176.601 93.9419 195.222 99.7874 195.222C110.416 195.222 121.044 195.222 131.672 195.222C135.127 195.222 138.581 195.222 141.769 195.222C152.398 195.222 163.026 195.222 173.654 195.222C179.5 195.222 179.5 176.601 173.654 176.601C169.137 176.601 164.886 176.601 160.369 176.601C166.48 156.65 172.857 136.698 178.968 116.747C198.365 116.747 217.762 116.747 237.158 116.747C242.738 134.038 248.318 151.063 253.898 168.354C254.695 171.014 255.758 173.941 256.555 176.601C252.304 176.601 248.053 176.601 243.535 176.601C237.69 176.601 237.69 195.222 243.535 195.222C257.618 195.222 271.701 195.222 285.517 195.222C291.363 195.222 291.363 176.601 285.517 176.601C279.14 176.601 272.763 176.601 266.386 176.601C259.744 156.65 253.367 136.698 246.724 116.747C259.478 116.747 276.749 116.747 289.503 116.747C289.503 119.407 289.503 121.802 289.769 124.196C290.831 161.97 308.368 197.616 349.819 200.01C367.887 201.074 386.221 196.02 398.975 182.719C414.386 166.758 418.371 143.083 418.637 121.536C418.637 121.27 418.637 121.004 418.637 120.738C418.637 119.407 418.637 118.077 418.637 116.481C429.265 116.481 432.454 116.481 443.082 116.481C443.082 119.141 443.082 121.536 443.348 123.93C444.411 161.704 461.948 197.35 503.398 199.744C521.466 200.808 539.8 195.754 552.554 182.453C567.965 166.492 571.951 142.817 572.216 121.27C572.216 121.004 572.216 120.738 572.216 120.472C572.216 119.141 572.216 117.811 572.216 116.215C585.236 116.215 601.444 116.215 614.464 116.215C603.038 137.763 591.347 159.576 579.922 181.123C578.328 184.049 577.265 197.084 582.845 197.084C617.918 197.084 653.257 197.084 688.331 197.084C691.785 197.084 692.316 189.902 692.316 187.773C692.316 176.069 692.316 164.364 692.316 152.659C692.316 150.265 691.785 143.349 688.331 143.349C684.877 143.349 684.345 150.531 684.345 152.659C684.345 161.172 684.345 169.95 684.345 178.463C654.32 178.463 624.295 178.463 594.27 178.463C604.898 158.246 615.793 138.029 626.421 117.811C626.952 117.013 627.218 116.215 627.484 115.417C630.938 112.757 631.204 101.318 627.749 98.1262C627.218 95.9981 626.421 94.136 625.624 92.0079C619.247 76.0469 612.87 60.086 606.493 44.125C603.304 36.4106 600.381 28.6961 597.193 20.9817C626.155 20.9817 655.383 20.9817 684.345 20.9817C684.345 30.0262 684.345 38.8047 684.345 47.8492C684.345 51.0414 684.877 57.9578 688.331 57.9578ZM184.283 98.6582C190.66 77.909 197.037 57.4258 203.414 36.6766C204.476 32.9524 205.539 29.4942 206.868 25.7699C214.839 49.9774 222.81 74.1848 230.516 98.3922C215.105 98.6582 199.694 98.6582 184.283 98.6582ZM310.228 40.6668C325.905 15.9274 366.027 11.9371 388.346 29.4942C407.743 44.9231 410.4 73.1207 410.666 98.3922C372.935 98.3922 335.47 98.3922 297.74 98.3922C298.006 92.0079 298.537 85.8895 299.068 79.7711C300.397 66.4703 302.788 52.3715 310.228 40.6668ZM392.863 169.152C382.767 177.931 369.747 181.655 356.461 182.187C323.514 182.985 300.397 161.97 298.006 128.984C297.74 125.26 297.474 121.27 297.474 117.545C335.205 117.545 372.67 117.545 410.4 117.545C410.4 118.875 410.4 120.472 410.4 121.802C410.4 138.827 406.415 156.916 392.863 169.152ZM546.177 169.152C536.08 177.931 523.06 181.655 509.775 182.187C476.827 182.985 453.711 161.97 451.319 128.984C451.053 123.664 450.788 118.343 450.788 113.023C451.585 110.097 451.585 106.373 450.788 103.447C451.053 95.466 451.585 87.7516 452.382 80.0371C453.711 66.7364 456.102 52.3715 463.542 40.9328C479.219 16.1934 519.34 12.2031 541.66 29.7602C561.057 45.1891 563.714 73.3867 563.979 98.6582C562.651 98.6582 561.057 98.6582 559.728 98.6582C553.882 98.6582 553.882 117.279 559.728 117.279C561.057 117.279 562.385 117.279 563.714 117.279C563.714 118.609 563.714 120.206 563.714 121.536C563.714 138.827 559.994 156.916 546.177 169.152Z" fill="#F1EEE7"/>
<path d="M208.728 270.504C208.728 271.568 208.728 272.899 208.728 274.229C208.728 275.559 208.728 276.889 208.728 277.687C208.728 279.283 208.728 280.879 208.728 282.741C208.728 284.603 208.728 285.667 208.728 285.933C208.728 285.933 208.196 285.933 207.399 285.933C206.602 285.933 205.805 285.933 205.274 285.933C201.819 285.933 198.631 285.667 195.974 284.869C193.317 284.071 190.925 282.741 189.065 280.879C187.737 279.815 186.94 278.219 186.143 276.623C185.345 275.027 185.08 272.899 185.08 270.77C185.08 268.11 185.877 265.716 187.205 263.588C188.534 261.46 190.66 259.864 193.051 258.534C194.645 257.736 196.771 256.938 198.897 256.406C201.022 255.874 203.414 255.608 205.539 255.608C205.805 255.608 206.336 255.608 206.602 255.608C206.868 255.608 207.133 255.608 207.399 255.608L207.665 258.8C207.665 258.8 207.399 258.8 206.868 258.8C206.336 258.8 206.071 258.8 205.805 258.8C203.414 258.8 201.554 259.066 199.694 259.332C197.834 259.598 196.239 260.396 194.645 260.928C192.785 261.992 191.191 263.322 190.128 264.918C189.065 266.78 188.534 268.376 188.534 270.504C188.534 272.899 189.065 275.027 190.128 276.623C191.191 278.219 192.785 279.549 194.379 280.347C195.974 281.145 197.568 281.677 199.428 281.943C201.288 282.209 203.148 282.475 205.008 282.475C205.008 282.209 205.008 281.145 205.008 279.017C205.008 276.889 205.008 273.963 205.008 269.972H208.728V270.504Z" fill="#F1EEE7"/>
<path d="M240.878 284.071L238.221 286.465C237.956 286.199 236.627 284.869 234.767 282.741C232.907 280.613 229.719 277.155 225.733 272.367V272.101C226.264 271.835 227.062 271.569 227.859 271.036C228.656 270.504 229.453 269.972 230.25 269.44C230.781 268.908 231.313 268.376 231.579 267.578C232.11 266.78 232.11 265.716 232.11 264.652C232.11 263.588 231.844 262.524 231.313 261.726C230.781 260.928 229.984 260.396 228.921 259.864C228.124 259.598 227.062 259.332 226.264 259.332C225.467 259.332 224.404 259.332 223.607 259.332C223.076 259.332 222.544 259.332 222.279 259.332C222.013 259.332 221.747 259.332 221.747 259.332C221.747 262.258 221.747 264.652 221.747 266.78C221.747 268.908 221.747 270.504 221.747 271.302C221.747 273.431 221.747 276.091 221.747 279.549C221.747 283.007 221.747 285.135 221.747 286.199H218.027C218.027 285.401 218.027 283.539 218.027 281.145C218.027 278.485 218.027 275.293 218.027 271.569C218.027 270.77 218.027 269.44 218.027 267.578C218.027 265.716 218.027 261.992 218.027 256.672C218.293 256.672 218.825 256.672 220.153 256.672C221.482 256.672 222.81 256.672 223.873 256.672C225.202 256.672 226.53 256.672 227.593 256.938C228.921 257.204 229.984 257.47 231.047 258.002C232.376 258.534 233.704 259.598 234.501 260.662C235.298 261.992 235.83 263.322 235.83 264.918C235.83 267.046 235.298 268.642 233.97 270.238C232.641 271.569 231.579 272.633 230.25 273.431C232.376 275.825 234.501 278.219 236.893 280.879C239.55 282.475 240.613 283.805 240.878 284.071Z" fill="#F1EEE7"/>
<path d="M265.589 285.667C265.589 285.667 264.526 285.667 262.666 285.667C260.806 285.667 258.681 285.667 255.758 285.667C253.898 285.667 252.038 285.667 250.71 285.667C249.115 285.667 247.787 285.667 246.724 285.667C246.724 284.869 246.724 283.007 246.724 280.081C246.724 277.155 246.724 274.229 246.724 271.302C246.724 269.706 246.724 267.312 246.724 264.652C246.724 261.992 246.724 259.066 246.724 256.14C247.787 256.14 249.115 256.14 250.71 256.14C252.304 256.14 253.898 256.14 255.492 256.14C258.415 256.14 260.541 256.14 262.401 256.14C264.261 256.14 265.058 256.14 265.323 256.14V259.332C265.058 259.332 264.261 259.332 262.666 259.332C261.072 259.332 258.947 259.332 256.289 259.332C255.227 259.332 254.164 259.332 253.101 259.332C252.038 259.332 251.241 259.332 250.444 259.332C250.444 260.928 250.444 262.79 250.444 264.386C250.444 265.982 250.444 267.578 250.444 269.174C250.975 269.174 251.772 269.174 252.835 269.174C253.898 269.174 254.429 269.174 255.227 269.174C257.884 269.174 260.275 269.174 262.135 269.174C264.261 269.174 265.323 269.174 265.323 269.174V272.1C265.323 272.1 263.995 272.1 261.604 272.1C259.212 272.1 257.087 272.1 255.227 272.1C254.429 272.1 253.632 272.1 252.57 272.1C251.507 272.1 250.71 272.1 250.178 272.1C250.178 274.761 250.178 277.155 250.178 278.751C250.178 280.347 250.178 281.677 250.178 282.741C250.975 282.741 252.038 282.741 253.367 282.741C254.695 282.741 256.024 282.741 257.352 282.741C259.478 282.741 261.338 282.741 262.932 282.741C264.526 282.741 265.323 282.741 265.323 282.741V285.667H265.589Z" fill="#F1EEE7"/>
<path d="M292.957 285.667C292.957 285.667 291.894 285.667 290.034 285.667C288.174 285.667 286.049 285.667 283.126 285.667C281.266 285.667 279.406 285.667 278.078 285.667C276.483 285.667 275.155 285.667 274.092 285.667C274.092 284.869 274.092 283.007 274.092 280.081C274.092 277.155 274.092 274.229 274.092 271.302C274.092 269.706 274.092 267.312 274.092 264.652C274.092 261.992 274.092 259.066 274.092 256.14C275.155 256.14 276.483 256.14 278.078 256.14C279.672 256.14 281.266 256.14 282.86 256.14C285.783 256.14 287.909 256.14 289.769 256.14C291.629 256.14 292.426 256.14 292.691 256.14V259.332C292.426 259.332 291.629 259.332 290.034 259.332C288.44 259.332 286.315 259.332 283.657 259.332C282.595 259.332 281.532 259.332 280.469 259.332C279.406 259.332 278.609 259.332 277.812 259.332C277.812 260.928 277.812 262.79 277.812 264.386C277.812 265.982 277.812 267.578 277.812 269.174C278.343 269.174 279.14 269.174 280.203 269.174C281.266 269.174 281.797 269.174 282.595 269.174C285.252 269.174 287.643 269.174 289.503 269.174C291.629 269.174 292.691 269.174 292.691 269.174V272.1C292.691 272.1 291.363 272.1 288.972 272.1C286.58 272.1 284.455 272.1 282.595 272.1C281.797 272.1 281 272.1 279.937 272.1C278.875 272.1 278.078 272.1 277.546 272.1C277.546 274.761 277.546 277.155 277.546 278.751C277.546 280.347 277.546 281.677 277.546 282.741C278.343 282.741 279.406 282.741 280.735 282.741C282.063 282.741 283.392 282.741 284.72 282.741C286.846 282.741 288.706 282.741 290.3 282.741C291.894 282.741 292.691 282.741 292.691 282.741V285.667H292.957Z" fill="#F1EEE7"/>
<path d="M305.18 285.933H301.46C301.46 285.135 301.46 283.007 301.46 280.081C301.46 277.155 301.46 273.431 301.46 269.174C301.46 267.578 301.46 265.45 301.46 263.056C301.46 260.662 301.46 258.534 301.46 256.14H305.18C305.18 258.534 305.18 260.928 305.18 263.854C305.18 266.78 305.18 269.174 305.18 271.302C305.18 275.559 305.18 278.751 305.18 281.145C305.18 283.273 305.18 284.869 305.18 285.933ZM324.311 283.805L321.654 286.199C318.199 282.741 314.745 279.549 311.557 276.623C308.368 273.697 306.508 271.834 305.977 271.568C306.774 270.77 308.9 268.642 311.822 265.45C314.745 262.258 317.934 259.066 320.857 255.874L323.248 258.002C320.591 260.396 318.199 263.056 315.542 265.716C312.885 268.376 311.291 270.238 310.494 271.036C310.76 271.302 312.354 272.633 314.745 275.027C317.137 277.421 320.591 280.347 324.311 283.805Z" fill="#F1EEE7"/>
<path d="M361.244 283.007C361.244 283.007 361.244 283.539 361.244 284.071C361.244 284.603 361.244 285.401 360.978 286.199H360.713H360.447C356.727 286.199 353.539 285.667 350.881 284.869C348.224 284.071 345.833 282.741 343.973 280.879C342.645 279.549 341.847 278.219 341.05 276.623C340.253 275.027 339.987 273.165 339.987 270.77C339.987 268.908 340.253 267.046 341.05 265.45C341.847 263.854 342.645 262.524 343.973 261.194C345.567 259.598 347.959 258.002 350.881 257.204C353.804 256.14 356.727 255.608 360.181 255.608C360.447 255.608 360.447 255.608 360.713 255.608C360.978 255.608 360.978 255.608 361.244 255.608C361.244 255.874 361.244 256.406 361.244 256.938C361.244 257.47 361.244 258.268 361.51 258.8C361.244 258.8 361.244 258.8 361.244 258.8H360.978C359.118 258.8 357.259 259.066 355.133 259.332C353.273 259.864 351.413 260.396 350.084 261.194C348.224 262.258 346.896 263.588 345.833 265.184C344.77 266.78 344.239 268.642 344.239 270.504C344.239 272.633 344.77 274.229 345.567 275.825C346.364 277.421 347.959 278.751 349.819 279.815C351.413 280.613 353.273 281.411 355.133 281.943C356.993 282.475 359.118 282.475 360.978 282.475C360.978 282.475 361.244 282.475 361.51 282.475C361.776 282.475 360.978 283.007 361.244 283.007Z" fill="#F1EEE7"/>
<path d="M391.801 256.14C391.801 259.066 391.801 261.194 391.801 263.056C391.801 264.918 391.801 266.514 391.801 267.844C391.801 269.44 391.801 271.036 391.801 272.1C391.801 273.165 391.801 274.229 391.801 275.293C391.801 276.889 391.535 278.485 391.003 279.815C390.472 281.145 389.675 282.209 388.612 283.273C387.549 284.337 386.221 285.135 384.892 285.667C383.298 286.199 381.704 286.465 379.578 286.465C377.452 286.465 375.858 286.199 374.264 285.667C372.67 285.135 371.607 284.337 370.544 283.273C369.481 282.209 368.684 281.145 368.152 279.815C367.621 278.485 367.355 276.889 367.355 275.293C367.355 274.495 367.355 273.431 367.355 272.1C367.355 271.036 367.355 269.44 367.355 267.844C367.355 266.514 367.355 264.918 367.355 263.056C367.355 261.194 367.355 258.8 367.355 256.14H371.075C371.075 256.406 371.075 257.736 371.075 259.864C371.075 261.992 371.075 264.918 371.075 268.376C371.075 269.44 371.075 270.504 371.075 271.568C371.075 272.633 371.075 273.963 371.075 275.027C371.075 277.687 371.872 279.815 373.467 281.145C375.061 282.475 377.187 283.273 379.844 283.273C382.766 283.273 384.892 282.741 386.221 281.145C387.549 279.815 388.346 277.687 388.346 275.027C388.346 273.697 388.346 272.633 388.346 271.568C388.346 270.504 388.346 269.44 388.346 268.376C388.346 264.918 388.346 261.992 388.346 259.864C388.346 257.736 388.346 256.406 388.346 256.14H391.801Z" fill="#F1EEE7"/>
<path d="M405.617 285.933H401.897C401.897 285.135 401.897 283.539 401.897 281.145C401.897 278.751 401.897 275.559 401.897 271.302C401.897 269.706 401.897 267.312 401.897 264.652C401.897 261.992 401.897 259.066 401.897 256.14H405.617C405.617 258.268 405.617 260.662 405.617 263.588C405.617 266.514 405.617 268.642 405.617 270.504C405.617 275.027 405.617 278.485 405.617 280.879C405.617 283.273 405.617 284.869 405.617 285.933Z" fill="#F1EEE7"/>
<path d="M430.86 277.421C430.86 279.017 430.594 280.347 429.797 281.411C429 282.475 428.203 283.539 426.874 284.071C425.811 284.603 424.483 285.135 423.154 285.667C421.826 285.933 420.231 286.199 418.371 286.199C417.309 286.199 416.511 286.199 415.449 286.199C414.386 286.199 413.854 286.199 413.589 286.199L413.323 283.007C413.589 283.007 414.12 283.007 415.183 283.273C416.246 283.539 417.308 283.273 418.637 283.273C419.434 283.273 420.497 283.273 421.56 283.007C422.888 282.741 423.686 282.475 424.483 282.209C425.28 281.677 426.077 281.145 426.608 280.613C427.14 280.081 427.405 279.283 427.405 278.219C427.405 277.155 427.14 276.357 426.608 275.825C426.077 275.027 425.28 274.495 424.217 273.963C423.42 273.431 422.623 273.165 421.56 272.633C420.497 272.1 419.434 271.568 418.637 271.036C417.043 270.238 415.98 269.174 415.449 268.11C414.917 267.046 414.386 265.716 414.386 264.386C414.386 263.056 414.651 261.726 415.183 260.928C415.714 260.13 416.511 259.066 417.574 258.268C418.637 257.47 419.7 256.938 421.028 256.672C422.357 256.406 423.951 256.14 425.545 256.14C426.343 256.14 427.405 256.14 428.203 256.14C429.265 256.14 429.797 256.14 429.797 256.14L430.062 259.332C430.062 259.332 429.265 259.332 428.468 259.066C427.671 258.8 426.343 259.066 425.014 259.066C424.217 259.066 423.42 259.066 422.357 259.332C421.56 259.598 420.763 259.864 419.966 260.13C419.434 260.396 418.903 260.928 418.371 261.46C417.84 261.992 417.84 262.79 417.84 263.588C417.84 264.386 418.106 264.918 418.371 265.716C418.903 266.514 419.7 267.046 420.763 267.844C421.294 268.11 422.091 268.642 423.154 269.174C424.217 269.706 425.014 270.238 426.077 270.77C427.671 271.568 428.734 272.633 429.531 273.697C430.328 274.761 430.86 276.091 430.86 277.421Z" fill="#F1EEE7"/>
<path d="M442.551 285.933H438.831C438.831 285.135 438.831 283.539 438.831 281.145C438.831 278.751 438.831 275.559 438.831 271.302C438.831 269.706 438.831 267.312 438.831 264.652C438.831 261.992 438.831 259.066 438.831 256.14H442.551C442.551 258.268 442.551 260.662 442.551 263.588C442.551 266.514 442.551 268.642 442.551 270.504C442.551 275.027 442.551 278.485 442.551 280.879C442.551 283.273 442.551 284.869 442.551 285.933Z" fill="#F1EEE7"/>
<path d="M478.421 256.14C478.421 258.534 478.421 261.194 478.421 264.12C478.421 267.046 478.421 269.174 478.421 270.504C478.421 274.761 478.421 277.953 478.421 280.613C478.421 283.007 478.421 284.337 478.421 284.603L475.499 285.933C470.982 279.815 466.996 274.495 463.01 269.706C459.025 264.918 456.899 261.992 456.368 261.194C456.368 265.184 456.368 269.972 456.368 275.825C456.368 281.677 456.368 284.869 456.368 285.933H452.913C452.913 285.667 452.913 284.337 452.913 281.943C452.913 279.815 452.913 276.623 452.913 272.633C452.913 271.036 452.913 268.908 452.913 266.248C452.913 263.588 452.913 260.662 452.913 257.736L456.368 256.14C456.633 256.406 459.025 259.332 463.276 264.652C467.527 269.972 471.513 275.027 475.233 279.815C475.233 277.421 475.233 273.697 475.233 268.376C475.233 263.056 475.233 259.066 475.233 256.406H478.421V256.14Z" fill="#F1EEE7"/>
<path d="M507.649 285.667C507.649 285.667 506.586 285.667 504.726 285.667C502.867 285.667 500.741 285.667 497.818 285.667C495.958 285.667 494.098 285.667 492.77 285.667C491.175 285.667 489.847 285.667 488.784 285.667C488.784 284.869 488.784 283.007 488.784 280.081C488.784 277.155 488.784 274.229 488.784 271.302C488.784 269.706 488.784 267.312 488.784 264.652C488.784 261.992 488.784 259.066 488.784 256.14C489.847 256.14 491.175 256.14 492.77 256.14C494.364 256.14 495.958 256.14 497.552 256.14C500.475 256.14 502.601 256.14 504.461 256.14C506.321 256.14 507.118 256.14 507.384 256.14V259.332C507.118 259.332 506.321 259.332 504.726 259.332C503.132 259.332 501.007 259.332 498.349 259.332C497.287 259.332 496.224 259.332 495.161 259.332C494.098 259.332 493.301 259.332 492.504 259.332C492.504 260.928 492.504 262.79 492.504 264.386C492.504 265.982 492.504 267.578 492.504 269.174C493.035 269.174 493.832 269.174 494.895 269.174C495.958 269.174 496.49 269.174 497.287 269.174C499.944 269.174 502.335 269.174 504.195 269.174C506.321 269.174 507.384 269.174 507.384 269.174V272.1C507.384 272.1 506.055 272.1 503.664 272.1C501.272 272.1 499.147 272.1 497.287 272.1C496.49 272.1 495.692 272.1 494.63 272.1C493.567 272.1 492.77 272.1 492.238 272.1C492.238 274.761 492.238 277.155 492.238 278.751C492.238 280.347 492.238 281.677 492.238 282.741C493.035 282.741 494.098 282.741 495.427 282.741C496.755 282.741 498.084 282.741 499.412 282.741C501.538 282.741 503.398 282.741 504.992 282.741C506.586 282.741 507.384 282.741 507.384 282.741V285.667H507.649Z" fill="#F1EEE7"/>
</svg>
